# xmcd CD database file
#
# Track frame offsets:
#	150
#	19635
#	44852
#	68770
#	92012
#	113090
#	136130
#	160545
#	188572
#	214310
#	241112
#
# Disc length: 3529 seconds
#
# Revision: 0
# Processed by: cddbd v1.5.1PL0 Copyright (c) Steve Scherf et al.
# Submitted via: cdripper 1,0,15,908
#
DISCID=8b0dc70b
DTITLE=The Victoria Warne Band - Live At The Savoy
DYEAR=1999
DGENRE=Blues
TTITLE0=Start It Up
TTITLE1=I Wonder Who
TTITLE2=Alone In The Dark
TTITLE3=Who's Been Talking
TTITLE4=Follow Me
TTITLE5=I Must Have Been Sleeping
TTITLE6=Strange Brew
TTITLE7=Dirty Pool
TTITLE8=Alexis
TTITLE9=If You Believe Me
TTITLE10=Killing Floor
EXTD=YEAR: 1999
EXTT0=
EXTT1=
EXTT2=
EXTT3=
EXTT4=
EXTT5=
EXTT6=
EXTT7=
EXTT8=
EXTT9=
EXTT10=
PLAYORDER=
